# xmcd CD database file
#
# Track frame offsets:
#	183
#	17108
#	31998
#	47108
#	57833
#	72383
#	89108
#	102908
#	119258
#	134790
#	148625
#	163355
#
# Disc length: 2373 seconds
#
# Revision: 1
# Processed by: cddbd v1.5.1PL0 Copyright (c) Steve Scherf et al.
# Submitted via: CDex 1.40Release
#
DISCID=b809430c
DTITLE=Claudio Villa - Succesi di  Claudio Villa 1
DYEAR=1994
DGENRE=Musica Italiana
TTITLE0=Buongiorno tristezza
TTITLE1=Figli d'oro
TTITLE2=Vecchio scarpone
TTITLE3=Appassionato tango
TTITLE4=Vetturino romano
TTITLE5=Serenata dei miei sogni
TTITLE6=Aprite le finestre
TTITLE7=Dormi mamma
TTITLE8=Arrivederci Roma
TTITLE9=Non ti scordar di me
TTITLE10=Luna rossa
TTITLE11=Stornello a pungolo
EXTD=YEAR: 1994
EXTT0=
EXTT1=
EXTT2=
EXTT3=
EXTT4=
EXTT5=
EXTT6=
EXTT7=
EXTT8=
EXTT9=
EXTT10=
EXTT11=
PLAYORDER=
